<svg width="237" height="183" viewBox="0 0 237 183" fill="none" xmlns="http://www.w3.org/2000/svg">
<g filter="url(#filter0_d)">
<path d="M4 86.8878C4 38.901 43.111 3.76066e-08 91.0978 -1.11758e-07C255.935 -6.24834e-07 74.817 -2.60114e-06 181 4.76837e-07C259.307 2.74676e-06 232.671 74.1148 204.417 126.017C186.92 158.159 151.7 175.05 115.112 174.294L89.0941 173.757C41.8164 172.781 4 134.176 4 86.8878Z" fill="#683594"/>
<path d="M149.271 115.947C146.008 122.165 141.528 127.784 136.156 132.447C130.784 137.096 124.535 140.775 117.809 143.222L116.546 143.653L115.915 143.869L115.269 144.069L113.991 144.454L112.698 144.808C112.483 144.869 112.267 144.931 112.052 144.977L111.405 145.131L110.097 145.439L108.773 145.7C108.558 145.747 108.327 145.793 108.111 145.824L107.449 145.931L106.126 146.147L104.787 146.316L104.125 146.393L103.463 146.455L102.124 146.578L100.784 146.655L100.107 146.685C99.8763 146.701 99.6608 146.701 99.43 146.701L98.0908 146.732C97.6444 146.732 97.198 146.716 96.7517 146.716C93.1652 146.67 89.5788 146.331 86.0539 145.593C84.2991 145.223 82.5444 144.808 80.8358 144.269L80.1893 144.084C79.9738 144.023 79.7584 143.961 79.5429 143.884L78.2807 143.438L77.0185 142.991L75.7717 142.483C72.4623 141.129 69.2761 139.466 66.2745 137.527L64.058 136.019L61.9185 134.418C61.7337 134.295 61.5644 134.141 61.3951 134.002L60.8872 133.571L59.8559 132.725C59.5018 132.447 59.1786 132.14 58.8554 131.847L57.8702 130.954C52.683 126.09 48.3731 120.364 45.0791 114.13C41.7851 107.881 39.584 101.078 38.5373 94.1048L38.3526 92.7964C38.291 92.3654 38.2294 91.919 38.1986 91.488C38.1217 90.6107 38.0447 89.7333 37.9677 88.8405L37.86 86.193L37.8446 85.8544C37.8446 85.7466 37.8446 85.6389 37.8446 85.5157V84.8539L37.86 83.5301C37.937 79.9898 38.291 76.4496 38.9683 72.9555L39.2453 71.6471C39.3377 71.2161 39.4146 70.7697 39.5378 70.3387C39.7687 69.4768 39.9842 68.6148 40.215 67.7528L41.0155 65.1977C41.077 64.9822 41.154 64.7821 41.231 64.5666L41.4618 63.9355L41.9236 62.6733C42.5855 61.0109 43.2782 59.3639 44.094 57.7785L44.3864 57.1782L44.5403 56.8703C44.5865 56.778 44.6481 56.6702 44.6943 56.5779L45.3407 55.408L45.9872 54.2382L46.6953 53.0992L47.4033 51.9601C47.6342 51.5753 47.9113 51.2213 48.1576 50.8519C48.6655 50.113 49.1581 49.3742 49.7122 48.6661L50.528 47.604L50.9436 47.0653L51.3746 46.5574L52.252 45.5261C52.5444 45.1874 52.8215 44.8334 53.1447 44.5102L54.0683 43.525C54.3761 43.2018 54.6686 42.8632 54.9918 42.5553L56.9159 40.6774L58.9323 38.8919C59.1016 38.738 59.2709 38.5994 59.4557 38.4609L59.979 38.0453L61.0257 37.1987C66.7055 32.7965 73.1858 29.3947 80.0662 27.2398C86.9466 25.0694 94.2427 24.2536 101.431 24.6538C108.635 25.0694 115.746 26.8242 122.303 29.7795C128.876 32.7195 134.879 36.8755 139.943 41.9088C145.023 46.9576 149.163 52.8991 152.103 59.3639C155.058 65.8288 156.782 72.8015 157.183 79.8051L156.829 79.8359C155.813 72.9247 153.673 66.2443 150.471 60.1489C147.27 54.0535 143.037 48.543 138.004 43.9252C132.986 39.2921 127.183 35.5671 120.918 32.9196C117.793 31.6112 114.561 30.5492 111.251 29.7949C107.942 29.0407 104.586 28.5635 101.2 28.4096C97.8137 28.2403 94.4274 28.348 91.0564 28.7328L89.7943 28.8868L89.1632 28.9637L88.5321 29.0715L87.2853 29.287L86.6542 29.3947L86.3463 29.4563C86.2386 29.4717 86.1462 29.5025 86.0385 29.5333L83.5603 30.0874L81.1129 30.7647C74.6327 32.7041 68.4757 35.7826 63.0113 39.8308L61.9954 40.6159L61.4875 41.0007C61.3181 41.1238 61.1488 41.2623 60.9949 41.4009L59.0555 43.0479L57.193 44.7872C56.5927 45.3875 56.0077 46.0032 55.4074 46.6035C54.253 47.8503 53.1293 49.1279 52.0673 50.467C51.5131 51.1135 51.036 51.8216 50.528 52.4989C50.2817 52.8375 50.0201 53.1761 49.7738 53.5301L49.0657 54.5922C45.2946 60.2721 42.4316 66.6138 40.8461 73.3095C40.0457 76.6497 39.5378 80.0822 39.3377 83.5147L39.2761 84.8077L39.2453 85.4542C39.2453 85.5619 39.2299 85.6697 39.2299 85.7774V86.1007L39.2607 88.6866C39.3069 89.5486 39.3685 90.4106 39.4146 91.2725C39.43 91.7035 39.4916 92.1345 39.5378 92.5655L39.6917 93.8585C39.7687 94.7205 39.938 95.567 40.0765 96.429C40.1535 96.86 40.215 97.291 40.3074 97.7066L40.5999 98.9688L40.8769 100.231C40.9231 100.446 40.9847 100.647 41.0462 100.862L41.2156 101.493L41.5696 102.74C41.6312 102.94 41.6773 103.156 41.7543 103.356L41.9544 103.971L42.37 105.203L42.5701 105.818C42.6317 106.019 42.724 106.219 42.801 106.419L43.2782 107.619L43.5244 108.22C43.6014 108.42 43.6784 108.62 43.7707 108.82L44.8482 111.175L46.0488 113.484C49.389 119.549 53.8682 124.967 59.1324 129.384L60.1329 130.2C60.4716 130.477 60.7948 130.754 61.1488 131.001L62.1801 131.77L62.7035 132.155C62.8728 132.278 63.0421 132.417 63.2268 132.524L65.3664 133.956L67.5675 135.28C70.5382 136.988 73.6321 138.435 76.8338 139.62C83.2217 141.991 89.979 143.33 96.7978 143.468C97.2288 143.484 97.6444 143.499 98.0754 143.499L99.353 143.484C99.5685 143.484 99.784 143.484 99.9841 143.468L100.615 143.438L101.893 143.376L103.17 143.284L103.801 143.238L104.433 143.161L105.695 143.022L106.957 142.837C110.328 142.36 113.653 141.529 116.9 140.482C123.381 138.327 129.507 135.064 134.94 130.847C140.374 126.629 145.115 121.457 148.948 115.623L149.271 115.947Z" fill="#B0D136"/>
<path d="M66.4593 49.2354L67.5214 52.0676H65.428L66.4593 49.2354Z" fill="white"/>
<path d="M66.5209 45.9106C63.1961 45.9106 60.5024 48.6043 60.5024 51.9291C60.5024 55.2539 63.1961 57.9476 66.5209 57.9476C69.8457 57.9476 72.5394 55.2539 72.5394 51.9291C72.5394 48.6043 69.8457 45.9106 66.5209 45.9106ZM69.1992 55.0846C68.876 55.0846 68.5989 54.8845 68.4757 54.592L67.9986 53.3606H64.9509L64.5045 54.592C64.3967 54.8845 64.1197 55.0846 63.7964 55.0846C63.3654 55.0846 63.0422 54.7305 63.0422 54.3303C63.0422 54.238 63.0576 54.1456 63.0884 54.0533L65.3511 48.2195C65.5358 47.7577 65.9668 47.4653 66.4593 47.4653C66.7056 47.4653 66.9365 47.5423 67.1366 47.6654C67.3367 47.7885 67.4906 47.9886 67.583 48.2041L69.9073 54.0071C70.1227 54.5304 69.7533 55.0846 69.1992 55.0846Z" fill="white"/>
<path d="M66.4746 60.1489C63.1499 60.1489 60.4562 62.8426 60.4562 66.1674C60.4562 69.4922 63.1499 72.1859 66.4746 72.1859C69.7994 72.1859 72.4931 69.4922 72.4931 66.1674C72.5085 62.858 69.8148 60.1489 66.4746 60.1489ZM69.5993 68.4917C69.3838 68.9073 69.1068 69.2459 68.7835 69.5076C68.2448 69.9078 67.5829 70.1079 66.7671 70.1079C65.7512 70.1079 64.92 69.7692 64.2735 69.0766C63.627 68.3839 63.2884 67.445 63.2884 66.2444C63.2884 64.9822 63.6116 63.9971 64.2735 63.289C64.92 62.5809 65.782 62.2423 66.8595 62.2423C67.7984 62.2423 68.5526 62.5194 69.1222 63.0735C69.2607 63.212 69.3992 63.366 69.507 63.5507C69.784 63.997 69.5224 64.5666 69.0298 64.6897C68.9682 64.7051 68.9067 64.7051 68.8451 64.7051C68.5834 64.7051 68.3217 64.5666 68.1832 64.3357C68.0909 64.1664 67.9677 64.0278 67.8138 63.9047C67.5213 63.6738 67.1827 63.5661 66.7671 63.5661C66.1976 63.5661 65.7512 63.7662 65.3972 64.1664C65.0431 64.5666 64.8738 65.2285 64.8738 66.1366C64.8738 67.1063 65.0431 67.7836 65.3972 68.1992C65.7358 68.6148 66.1976 68.8149 66.7517 68.8149C67.1673 68.8149 67.5059 68.6918 67.8138 68.4301C67.9831 68.2762 68.1216 68.0761 68.2448 67.8298C68.3987 67.4758 68.7989 67.3064 69.1683 67.4296C69.5993 67.5527 69.8148 68.0761 69.5993 68.4917Z" fill="white"/>
<path d="M66.4746 74.4023C63.1499 74.4023 60.4562 77.096 60.4562 80.4208C60.4562 83.7456 63.1499 86.4393 66.4746 86.4393C69.7994 86.4393 72.4931 83.7456 72.4931 80.4208C72.5085 77.096 69.8148 74.4023 66.4746 74.4023ZM69.5993 82.7451C69.3838 83.1607 69.1068 83.4993 68.7835 83.761C68.2448 84.1612 67.5829 84.3613 66.7671 84.3613C65.7512 84.3613 64.92 84.0227 64.2735 83.33C63.627 82.6373 63.2884 81.6984 63.2884 80.4978C63.2884 79.2356 63.6116 78.2505 64.2735 77.5424C64.92 76.8344 65.782 76.4957 66.8595 76.4957C67.7984 76.4957 68.5526 76.7728 69.1222 77.3269C69.2607 77.4654 69.3992 77.6194 69.507 77.8041C69.784 78.2505 69.5224 78.82 69.0298 78.9431C68.9682 78.9585 68.9067 78.9585 68.8451 78.9585C68.5834 78.9585 68.3217 78.82 68.1832 78.5891C68.0909 78.4198 67.9677 78.2812 67.8138 78.1581C67.5213 77.9272 67.1827 77.8195 66.7671 77.8195C66.1976 77.8195 65.7512 78.0196 65.3972 78.4198C65.0431 78.82 64.8738 79.4819 64.8738 80.39C64.8738 81.3597 65.0431 82.037 65.3972 82.4526C65.7358 82.8682 66.1976 83.0683 66.7517 83.0683C67.1673 83.0683 67.5059 82.9452 67.8138 82.6835C67.9831 82.5296 68.1216 82.3295 68.2448 82.0832C68.3987 81.7292 68.7989 81.5599 69.1683 81.683C69.5993 81.8061 69.8148 82.3141 69.5993 82.7451Z" fill="white"/>
<path d="M86.7003 55.5156L86.454 58.0708H84.4376L84.6839 55.5156H86.7003Z" fill="white"/>
<path d="M85.2073 47.6196C80.2817 47.6196 76.2797 51.6217 76.2797 56.5473C76.2797 61.4883 80.2817 65.4749 85.2073 65.4749C90.1483 65.4749 94.1349 61.4729 94.1349 56.5473C94.1503 51.6217 90.1483 47.6196 85.2073 47.6196ZM90.7794 55.516H88.6244L88.3628 58.0711H90.4561L90.2714 60.5801H88.1319L87.8086 63.9203H85.9L86.2078 60.5801H84.2222L83.8836 63.9203H81.9595L82.2827 60.5801H80.1894L80.3741 58.0711H82.529L82.7599 55.516H80.6819L80.8666 53.007H83.0062L83.3294 49.5591H85.2535L84.9149 53.007H86.9313L87.2545 49.5591H89.194L88.8707 53.007H90.9333L90.7794 55.516Z" fill="white"/>
<path d="M104.356 122.442C107.883 122.442 110.743 119.582 110.743 116.054C110.743 112.526 107.883 109.667 104.356 109.667C100.828 109.667 97.9677 112.526 97.9677 116.054C97.9677 119.582 100.828 122.442 104.356 122.442Z" fill="white"/>
<path d="M115.53 111.652C119.058 111.652 121.918 108.792 121.918 105.264C121.918 101.736 119.058 98.8765 115.53 98.8765C112.003 98.8765 109.143 101.736 109.143 105.264C109.143 108.792 112.003 111.652 115.53 111.652Z" fill="white"/>
<path d="M90.6716 84.2075C94.2336 84.2075 97.1211 81.32 97.1211 77.758C97.1211 74.1961 94.2336 71.3086 90.6716 71.3086C87.1097 71.3086 84.2222 74.1961 84.2222 77.758C84.2222 81.32 87.1097 84.2075 90.6716 84.2075Z" fill="white"/>
<path d="M112.313 92.7812C115.867 92.7812 118.748 89.9006 118.748 86.3471C118.748 82.7937 115.867 79.9131 112.313 79.9131C108.76 79.9131 105.879 82.7937 105.879 86.3471C105.879 89.9006 108.76 92.7812 112.313 92.7812Z" fill="white"/>
<path d="M89.9019 123.889C93.4384 123.889 96.3052 121.022 96.3052 117.486C96.3052 113.949 93.4384 111.083 89.9019 111.083C86.3655 111.083 83.4987 113.949 83.4987 117.486C83.4987 121.022 86.3655 123.889 89.9019 123.889Z" fill="white"/>
<path d="M115.361 60.0873C118.711 60.0873 121.426 57.3721 121.426 54.0226C121.426 50.6732 118.711 47.958 115.361 47.958C112.012 47.958 109.297 50.6732 109.297 54.0226C109.297 57.3721 112.012 60.0873 115.361 60.0873Z" fill="white"/>
<path d="M101.585 60.2103C105.104 60.2103 107.957 57.3573 107.957 53.8378C107.957 50.3184 105.104 47.4653 101.585 47.4653C98.0653 47.4653 95.2123 50.3184 95.2123 53.8378C95.2123 57.3573 98.0653 60.2103 101.585 60.2103Z" fill="white"/>
<path d="M105.171 81.4982C107.356 81.4982 109.127 79.7271 109.127 77.5423C109.127 75.3575 107.356 73.5864 105.171 73.5864C102.986 73.5864 101.215 75.3575 101.215 77.5423C101.215 79.7271 102.986 81.4982 105.171 81.4982Z" fill="white"/>
<path d="M118.901 96.2597C120.491 96.2597 121.78 94.971 121.78 93.3813C121.78 91.7916 120.491 90.5029 118.901 90.5029C117.312 90.5029 116.023 91.7916 116.023 93.3813C116.023 94.971 117.312 96.2597 118.901 96.2597Z" fill="white"/>
<path d="M79.4197 84.854C81.0094 84.854 82.2981 83.5653 82.2981 81.9756C82.2981 80.3859 81.0094 79.0972 79.4197 79.0972C77.83 79.0972 76.5413 80.3859 76.5413 81.9756C76.5413 83.5653 77.83 84.854 79.4197 84.854Z" fill="white"/>
<path d="M109.358 99.4C110.982 99.4 112.298 98.0837 112.298 96.46C112.298 94.8363 110.982 93.52 109.358 93.52C107.734 93.52 106.418 94.8363 106.418 96.46C106.418 98.0837 107.734 99.4 109.358 99.4Z" fill="white"/>
<path d="M80.6665 76.9882C82.2477 76.9882 83.5295 75.7064 83.5295 74.1252C83.5295 72.544 82.2477 71.2622 80.6665 71.2622C79.0853 71.2622 77.8035 72.544 77.8035 74.1252C77.8035 75.7064 79.0853 76.9882 80.6665 76.9882Z" fill="white"/>
<path d="M80.5126 116.501C82.1022 116.501 83.3909 115.212 83.3909 113.623C83.3909 112.033 82.1022 110.744 80.5126 110.744C78.9229 110.744 77.6342 112.033 77.6342 113.623C77.6342 115.212 78.9229 116.501 80.5126 116.501Z" fill="white"/>
<path d="M99.6916 87.6401C101.273 87.6401 102.555 86.3583 102.555 84.7771C102.555 83.1959 101.273 81.9141 99.6916 81.9141C98.1104 81.9141 96.8286 83.1959 96.8286 84.7771C96.8286 86.3583 98.1104 87.6401 99.6916 87.6401Z" fill="white"/>
<path d="M80.4049 122.612C82.0031 122.612 83.2987 121.316 83.2987 119.718C83.2987 118.12 82.0031 116.824 80.4049 116.824C78.8067 116.824 77.5111 118.12 77.5111 119.718C77.5111 121.316 78.8067 122.612 80.4049 122.612Z" fill="white"/>
<path d="M99.2607 77.127C100.357 77.127 101.246 76.238 101.246 75.1414C101.246 74.0448 100.357 73.1558 99.2607 73.1558C98.164 73.1558 97.275 74.0448 97.275 75.1414C97.275 76.238 98.164 77.127 99.2607 77.127Z" fill="white"/>
<path d="M85.4074 87.0703C86.487 87.0703 87.3622 86.1951 87.3622 85.1155C87.3622 84.0359 86.487 83.1606 85.4074 83.1606C84.3277 83.1606 83.4525 84.0359 83.4525 85.1155C83.4525 86.1951 84.3277 87.0703 85.4074 87.0703Z" fill="white"/>
<path d="M94.2734 50.8828C95.3275 50.8828 96.1821 50.0282 96.1821 48.9741C96.1821 47.92 95.3275 47.0654 94.2734 47.0654C93.2193 47.0654 92.3647 47.92 92.3647 48.9741C92.3647 50.0282 93.2193 50.8828 94.2734 50.8828Z" fill="white"/>
<path d="M106.095 107.712C107.226 107.712 108.142 106.795 108.142 105.664C108.142 104.534 107.226 103.617 106.095 103.617C104.964 103.617 104.048 104.534 104.048 105.664C104.048 106.795 104.964 107.712 106.095 107.712Z" fill="white"/>
<path d="M95.9666 125.521C97.0717 125.521 97.9676 124.625 97.9676 123.52C97.9676 122.414 97.0717 121.519 95.9666 121.519C94.8615 121.519 93.9656 122.414 93.9656 123.52C93.9656 124.625 94.8615 125.521 95.9666 125.521Z" fill="white"/>
<path d="M121.256 100.955C122.328 100.955 123.196 100.086 123.196 99.0151C123.196 97.944 122.328 97.0757 121.256 97.0757C120.185 97.0757 119.317 97.944 119.317 99.0151C119.317 100.086 120.185 100.955 121.256 100.955Z" fill="white"/>
<path d="M111.128 48.6044C112.174 48.6044 113.022 47.7568 113.022 46.7111C113.022 45.6655 112.174 44.8179 111.128 44.8179C110.083 44.8179 109.235 45.6655 109.235 46.7111C109.235 47.7568 110.083 48.6044 111.128 48.6044Z" fill="white"/>
<path d="M113.16 116.224C114.223 116.224 115.084 115.362 115.084 114.3C115.084 113.237 114.223 112.375 113.16 112.375C112.097 112.375 111.236 113.237 111.236 114.3C111.236 115.362 112.097 116.224 113.16 116.224Z" fill="white"/>
<path d="M98.8605 80.8056C99.566 80.8056 100.138 80.2337 100.138 79.5281C100.138 78.8225 99.566 78.2505 98.8605 78.2505C98.1549 78.2505 97.5829 78.8225 97.5829 79.5281C97.5829 80.2337 98.1549 80.8056 98.8605 80.8056Z" fill="white"/>
<path d="M97.0748 73.6944C97.8228 73.6944 98.4293 73.088 98.4293 72.3399C98.4293 71.5918 97.8228 70.9854 97.0748 70.9854C96.3267 70.9854 95.7202 71.5918 95.7202 72.3399C95.7202 73.088 96.3267 73.6944 97.0748 73.6944Z" fill="white"/>
<path d="M107.141 93.9663C107.864 93.9663 108.45 93.3806 108.45 92.658C108.45 91.9354 107.864 91.3496 107.141 91.3496C106.419 91.3496 105.833 91.9354 105.833 92.658C105.833 93.3806 106.419 93.9663 107.141 93.9663Z" fill="white"/>
<path d="M99.8456 110.944C100.543 110.944 101.108 110.379 101.108 109.682C101.108 108.985 100.543 108.42 99.8456 108.42C99.1485 108.42 98.5834 108.985 98.5834 109.682C98.5834 110.379 99.1485 110.944 99.8456 110.944Z" fill="white"/>
<path d="M86.9775 126.213C87.7341 126.213 88.3474 125.6 88.3474 124.844C88.3474 124.087 87.7341 123.474 86.9775 123.474C86.2209 123.474 85.6075 124.087 85.6075 124.844C85.6075 125.6 86.2209 126.213 86.9775 126.213Z" fill="white"/>
<path d="M109.62 62.1037C110.572 62.1037 111.344 61.3318 111.344 60.3797C111.344 59.4276 110.572 58.6558 109.62 58.6558C108.668 58.6558 107.896 59.4276 107.896 60.3797C107.896 61.3318 108.668 62.1037 109.62 62.1037Z" fill="white"/>
<path d="M113.745 79.8667C114.467 79.8667 115.053 79.2809 115.053 78.5584C115.053 77.8358 114.467 77.25 113.745 77.25C113.022 77.25 112.437 77.8358 112.437 78.5584C112.437 79.2809 113.022 79.8667 113.745 79.8667Z" fill="white"/>
<path d="M76.5105 78.7892C77.2926 78.7892 77.9266 78.1552 77.9266 77.3731C77.9266 76.591 77.2926 75.957 76.5105 75.957C75.7284 75.957 75.0944 76.591 75.0944 77.3731C75.0944 78.1552 75.7284 78.7892 76.5105 78.7892Z" fill="white"/>
<path d="M91.5028 87.5015C92.2169 87.5015 92.7958 86.9226 92.7958 86.2085C92.7958 85.4944 92.2169 84.9155 91.5028 84.9155C90.7887 84.9155 90.2098 85.4944 90.2098 86.2085C90.2098 86.9226 90.7887 87.5015 91.5028 87.5015Z" fill="white"/>
<path d="M103.724 47.5578C104.524 47.5578 105.171 46.9101 105.171 46.111C105.171 45.3119 104.524 44.6641 103.724 44.6641C102.925 44.6641 102.278 45.3119 102.278 46.111C102.278 46.9101 102.925 47.5578 103.724 47.5578Z" fill="white"/>
<path d="M108.419 110.344C109.142 110.344 109.728 109.758 109.728 109.035C109.728 108.313 109.142 107.727 108.419 107.727C107.697 107.727 107.111 108.313 107.111 109.035C107.111 109.758 107.697 110.344 108.419 110.344Z" fill="white"/>
<path d="M107.727 50.0823C108.543 50.0823 109.204 49.4207 109.204 48.6046C109.204 47.7885 108.543 47.127 107.727 47.127C106.91 47.127 106.249 47.7885 106.249 48.6046C106.249 49.4207 106.91 50.0823 107.727 50.0823Z" fill="white"/>
<path d="M105.294 91.8727C106.051 91.8727 106.664 91.2593 106.664 90.5027C106.664 89.7462 106.051 89.1328 105.294 89.1328C104.538 89.1328 103.925 89.7462 103.925 90.5027C103.925 91.2593 104.538 91.8727 105.294 91.8727Z" fill="white"/>
<path d="M101.477 125.367C102.285 125.367 102.939 124.712 102.939 123.905C102.939 123.097 102.285 122.442 101.477 122.442C100.669 122.442 100.015 123.097 100.015 123.905C100.015 124.712 100.669 125.367 101.477 125.367Z" fill="white"/>
<path d="M84.0682 124.043C84.7908 124.043 85.3766 123.457 85.3766 122.735C85.3766 122.012 84.7908 121.426 84.0682 121.426C83.3457 121.426 82.7599 122.012 82.7599 122.735C82.7599 123.457 83.3457 124.043 84.0682 124.043Z" fill="white"/>
<path d="M101.77 74.0791C102.492 74.0791 103.078 73.4934 103.078 72.7708C103.078 72.0482 102.492 71.4624 101.77 71.4624C101.047 71.4624 100.461 72.0482 100.461 72.7708C100.461 73.4934 101.047 74.0791 101.77 74.0791Z" fill="white"/>
<path d="M107.526 102.909C108.376 102.909 109.066 102.22 109.066 101.37C109.066 100.52 108.376 99.8306 107.526 99.8306C106.676 99.8306 105.987 100.52 105.987 101.37C105.987 102.22 106.676 102.909 107.526 102.909Z" fill="white"/>
<path d="M96.8902 48.0195C97.7658 48.0195 98.4757 47.3097 98.4757 46.4341C98.4757 45.5585 97.7658 44.8486 96.8902 44.8486C96.0146 44.8486 95.3048 45.5585 95.3048 46.4341C95.3048 47.3097 96.0146 48.0195 96.8902 48.0195Z" fill="white"/>
<path d="M112.421 118.933C113.127 118.933 113.699 118.361 113.699 117.655C113.699 116.949 113.127 116.377 112.421 116.377C111.716 116.377 111.144 116.949 111.144 117.655C111.144 118.361 111.716 118.933 112.421 118.933Z" fill="white"/>
<path d="M94.3811 86.4239C95.1122 86.4239 95.7049 85.8312 95.7049 85.1001C95.7049 84.369 95.1122 83.7764 94.3811 83.7764C93.65 83.7764 93.0574 84.369 93.0574 85.1001C93.0574 85.8312 93.65 86.4239 94.3811 86.4239Z" fill="white"/>
<path d="M76.5413 118.425C77.2639 118.425 77.8496 117.839 77.8496 117.116C77.8496 116.394 77.2639 115.808 76.5413 115.808C75.8187 115.808 75.2329 116.394 75.2329 117.116C75.2329 117.839 75.8187 118.425 76.5413 118.425Z" fill="white"/>
<path d="M97.198 111.436C97.9036 111.436 98.4756 110.865 98.4756 110.159C98.4756 109.453 97.9036 108.881 97.198 108.881C96.4924 108.881 95.9204 109.453 95.9204 110.159C95.9204 110.865 96.4924 111.436 97.198 111.436Z" fill="white"/>
<path d="M84.9456 112.36C85.8552 112.36 86.5926 111.623 86.5926 110.713C86.5926 109.804 85.8552 109.066 84.9456 109.066C84.036 109.066 83.2986 109.804 83.2986 110.713C83.2986 111.623 84.036 112.36 84.9456 112.36Z" fill="white"/>
<path d="M116.146 98.7376C116.979 98.7376 117.655 98.0623 117.655 97.2292C117.655 96.3961 116.979 95.7207 116.146 95.7207C115.313 95.7207 114.638 96.3961 114.638 97.2292C114.638 98.0623 115.313 98.7376 116.146 98.7376Z" fill="white"/>
<path d="M97.2134 61.8731C97.936 61.8731 98.5218 61.2873 98.5218 60.5647C98.5218 59.8421 97.936 59.2563 97.2134 59.2563C96.4908 59.2563 95.905 59.8421 95.905 60.5647C95.905 61.2873 96.4908 61.8731 97.2134 61.8731Z" fill="white"/>
<path d="M82.2366 79.9591C82.9762 79.9591 83.5758 79.3595 83.5758 78.6199C83.5758 77.8803 82.9762 77.2808 82.2366 77.2808C81.497 77.2808 80.8975 77.8803 80.8975 78.6199C80.8975 79.3595 81.497 79.9591 82.2366 79.9591Z" fill="white"/>
<path d="M76.9568 72.5707C77.7984 72.5707 78.4807 71.8884 78.4807 71.0468C78.4807 70.2052 77.7984 69.5229 76.9568 69.5229C76.1152 69.5229 75.433 70.2052 75.433 71.0468C75.433 71.8884 76.1152 72.5707 76.9568 72.5707Z" fill="white"/>
<path d="M89.2554 86.701C89.723 86.701 90.102 86.322 90.102 85.8544C90.102 85.3868 89.723 85.0078 89.2554 85.0078C88.7878 85.0078 88.4088 85.3868 88.4088 85.8544C88.4088 86.322 88.7878 86.701 89.2554 86.701Z" fill="white"/>
<path d="M81.0821 125.336C81.7707 125.336 82.3289 124.778 82.3289 124.089C82.3289 123.4 81.7707 122.842 81.0821 122.842C80.3935 122.842 79.8353 123.4 79.8353 124.089C79.8353 124.778 80.3935 125.336 81.0821 125.336Z" fill="white"/>
<path d="M103.771 84.5458C104.459 84.5458 105.017 83.9876 105.017 83.299C105.017 82.6105 104.459 82.0522 103.771 82.0522C103.082 82.0522 102.524 82.6105 102.524 83.299C102.524 83.9876 103.082 84.5458 103.771 84.5458Z" fill="white"/>
<path d="M118.424 114.253C118.96 114.253 119.394 113.819 119.394 113.284C119.394 112.748 118.96 112.314 118.424 112.314C117.889 112.314 117.455 112.748 117.455 113.284C117.455 113.819 117.889 114.253 118.424 114.253Z" fill="white"/>
<path d="M76.0949 63.2583C76.6474 63.2583 77.0954 62.8104 77.0954 62.2578C77.0954 61.7053 76.6474 61.2573 76.0949 61.2573C75.5423 61.2573 75.0944 61.7053 75.0944 62.2578C75.0944 62.8104 75.5423 63.2583 76.0949 63.2583Z" fill="white"/>
<path d="M77.8343 123.504C78.3018 123.504 78.6808 123.125 78.6808 122.658C78.6808 122.19 78.3018 121.811 77.8343 121.811C77.3667 121.811 76.9877 122.19 76.9877 122.658C76.9877 123.125 77.3667 123.504 77.8343 123.504Z" fill="white"/>
<path d="M83.945 83.0375C84.6251 83.0375 85.1764 82.4862 85.1764 81.8061C85.1764 81.126 84.6251 80.5747 83.945 80.5747C83.2649 80.5747 82.7136 81.126 82.7136 81.8061C82.7136 82.4862 83.2649 83.0375 83.945 83.0375Z" fill="white"/>
<path d="M98.7064 125.952C99.2335 125.952 99.6607 125.524 99.6607 124.997C99.6607 124.47 99.2335 124.043 98.7064 124.043C98.1793 124.043 97.7521 124.47 97.7521 124.997C97.7521 125.524 98.1793 125.952 98.7064 125.952Z" fill="white"/>
<path d="M85.669 46.85C86.1536 46.85 86.5464 46.4571 86.5464 45.9726C86.5464 45.488 86.1536 45.0952 85.669 45.0952C85.1844 45.0952 84.7916 45.488 84.7916 45.9726C84.7916 46.4571 85.1844 46.85 85.669 46.85Z" fill="white"/>
<path d="M103.524 88.0555C104 88.0555 104.386 87.6696 104.386 87.1935C104.386 86.7175 104 86.3315 103.524 86.3315C103.048 86.3315 102.662 86.7175 102.662 87.1935C102.662 87.6696 103.048 88.0555 103.524 88.0555Z" fill="white"/>
<path d="M81.0666 87.2397C81.7722 87.2397 82.3442 86.6677 82.3442 85.9621C82.3442 85.2566 81.7722 84.6846 81.0666 84.6846C80.3611 84.6846 79.7891 85.2566 79.7891 85.9621C79.7891 86.6677 80.3611 87.2397 81.0666 87.2397Z" fill="white"/>
<path d="M111.682 78.3582C112.15 78.3582 112.529 77.9792 112.529 77.5116C112.529 77.0441 112.15 76.665 111.682 76.665C111.215 76.665 110.836 77.0441 110.836 77.5116C110.836 77.9792 111.215 78.3582 111.682 78.3582Z" fill="white"/>
<path d="M122.596 103.34C123.242 103.34 123.765 102.816 123.765 102.17C123.765 101.524 123.242 101 122.596 101C121.95 101 121.426 101.524 121.426 102.17C121.426 102.816 121.95 103.34 122.596 103.34Z" fill="white"/>
<path d="M96.1822 113.422C96.7432 113.422 97.1981 112.968 97.1981 112.407C97.1981 111.845 96.7432 111.391 96.1822 111.391C95.6211 111.391 95.1663 111.845 95.1663 112.407C95.1663 112.968 95.6211 113.422 96.1822 113.422Z" fill="white"/>
<path d="M106.187 61.765C106.859 61.765 107.403 61.2206 107.403 60.549C107.403 59.8774 106.859 59.333 106.187 59.333C105.516 59.333 104.971 59.8774 104.971 60.549C104.971 61.2206 105.516 61.765 106.187 61.765Z" fill="white"/>
<path d="M82.8984 47.0959C83.4935 47.0959 83.9759 46.6135 83.9759 46.0184C83.9759 45.4233 83.4935 44.9409 82.8984 44.9409C82.3033 44.9409 81.8209 45.4233 81.8209 46.0184C81.8209 46.6135 82.3033 47.0959 82.8984 47.0959Z" fill="white"/>
<path d="M122.734 94.9207C123.21 94.9207 123.596 94.5348 123.596 94.0588C123.596 93.5827 123.21 93.1968 122.734 93.1968C122.258 93.1968 121.872 93.5827 121.872 94.0588C121.872 94.5348 122.258 94.9207 122.734 94.9207Z" fill="white"/>
<path d="M93.6268 46.6343C94.1709 46.6343 94.612 46.1932 94.612 45.6492C94.612 45.1051 94.1709 44.6641 93.6268 44.6641C93.0828 44.6641 92.6417 45.1051 92.6417 45.6492C92.6417 46.1932 93.0828 46.6343 93.6268 46.6343Z" fill="white"/>
<path d="M107.603 123.951C108.164 123.951 108.619 123.496 108.619 122.935C108.619 122.374 108.164 121.919 107.603 121.919C107.042 121.919 106.588 122.374 106.588 122.935C106.588 123.496 107.042 123.951 107.603 123.951Z" fill="white"/>
<path d="M93.5962 88.3172C94.0723 88.3172 94.4582 87.9313 94.4582 87.4552C94.4582 86.9792 94.0723 86.5933 93.5962 86.5933C93.1202 86.5933 92.7343 86.9792 92.7343 87.4552C92.7343 87.9313 93.1202 88.3172 93.5962 88.3172Z" fill="white"/>
<path d="M97.0595 115.454C97.5611 115.454 97.9677 115.047 97.9677 114.546C97.9677 114.044 97.5611 113.638 97.0595 113.638C96.558 113.638 96.1514 114.044 96.1514 114.546C96.1514 115.047 96.558 115.454 97.0595 115.454Z" fill="white"/>
<path d="M94.2888 112.114C94.9944 112.114 95.5664 111.542 95.5664 110.836C95.5664 110.131 94.9944 109.559 94.2888 109.559C93.5832 109.559 93.0112 110.131 93.0112 110.836C93.0112 111.542 93.5832 112.114 94.2888 112.114Z" fill="white"/>
<path d="M82.6214 85.0076C83.0889 85.0076 83.468 84.6286 83.468 84.161C83.468 83.6935 83.0889 83.3145 82.6214 83.3145C82.1538 83.3145 81.7748 83.6935 81.7748 84.161C81.7748 84.6286 82.1538 85.0076 82.6214 85.0076Z" fill="white"/>
<path d="M95.6742 59.0867C96.1418 59.0867 96.5208 58.7077 96.5208 58.2401C96.5208 57.7726 96.1418 57.3936 95.6742 57.3936C95.2067 57.3936 94.8276 57.7726 94.8276 58.2401C94.8276 58.7077 95.2067 59.0867 95.6742 59.0867Z" fill="white"/>
<path d="M113.376 95.0131C113.869 95.0131 114.268 94.6134 114.268 94.1203C114.268 93.6272 113.869 93.2275 113.376 93.2275C112.882 93.2275 112.483 93.6272 112.483 94.1203C112.483 94.6134 112.882 95.0131 113.376 95.0131Z" fill="white"/>
<path d="M90.1483 47.6809C90.7689 47.6809 91.272 47.1778 91.272 46.5572C91.272 45.9367 90.7689 45.4336 90.1483 45.4336C89.5277 45.4336 89.0247 45.9367 89.0247 46.5572C89.0247 47.1778 89.5277 47.6809 90.1483 47.6809Z" fill="white"/>
<path d="M82.2365 110.975C82.8061 110.975 83.2678 110.513 83.2678 109.943C83.2678 109.374 82.8061 108.912 82.2365 108.912C81.6669 108.912 81.2052 109.374 81.2052 109.943C81.2052 110.513 81.6669 110.975 82.2365 110.975Z" fill="white"/>
<path d="M105.279 109.559C105.781 109.559 106.187 109.152 106.187 108.651C106.187 108.149 105.781 107.743 105.279 107.743C104.778 107.743 104.371 108.149 104.371 108.651C104.371 109.152 104.778 109.559 105.279 109.559Z" fill="white"/>
<path d="M77.8496 49.3436C78.3257 49.3436 78.7116 48.9577 78.7116 48.4816C78.7116 48.0056 78.3257 47.6196 77.8496 47.6196C77.3736 47.6196 76.9877 48.0056 76.9877 48.4816C76.9877 48.9577 77.3736 49.3436 77.8496 49.3436Z" fill="white"/>
<path d="M87.8394 111.221C88.3069 111.221 88.686 110.842 88.686 110.374C88.686 109.907 88.3069 109.528 87.8394 109.528C87.3718 109.528 86.9928 109.907 86.9928 110.374C86.9928 110.842 87.3718 111.221 87.8394 111.221Z" fill="white"/>
<path d="M90.0251 125.952C90.4926 125.952 90.8716 125.573 90.8716 125.105C90.8716 124.638 90.4926 124.259 90.0251 124.259C89.5575 124.259 89.1785 124.638 89.1785 125.105C89.1785 125.573 89.5575 125.952 90.0251 125.952Z" fill="white"/>
<path d="M103.217 108.358C103.82 108.358 104.309 107.869 104.309 107.265C104.309 106.662 103.82 106.172 103.217 106.172C102.613 106.172 102.124 106.662 102.124 107.265C102.124 107.869 102.613 108.358 103.217 108.358Z" fill="white"/>
<path d="M121.287 90.1796C121.789 90.1796 122.195 89.773 122.195 89.2714C122.195 88.7699 121.789 88.3633 121.287 88.3633C120.786 88.3633 120.379 88.7699 120.379 89.2714C120.379 89.773 120.786 90.1796 121.287 90.1796Z" fill="white"/>
<path d="M87.4853 88.3173C87.9784 88.3173 88.3781 87.9176 88.3781 87.4245C88.3781 86.9314 87.9784 86.5317 87.4853 86.5317C86.9922 86.5317 86.5925 86.9314 86.5925 87.4245C86.5925 87.9176 86.9922 88.3173 87.4853 88.3173Z" fill="white"/>
<path d="M101.585 89.1327C102.086 89.1327 102.493 88.7261 102.493 88.2246C102.493 87.723 102.086 87.3164 101.585 87.3164C101.083 87.3164 100.677 87.723 100.677 88.2246C100.677 88.7261 101.083 89.1327 101.585 89.1327Z" fill="white"/>
<path d="M113.283 96.8445C113.751 96.8445 114.13 96.4655 114.13 95.998C114.13 95.5304 113.751 95.1514 113.283 95.1514C112.816 95.1514 112.437 95.5304 112.437 95.998C112.437 96.4655 112.816 96.8445 113.283 96.8445Z" fill="white"/>
<path d="M91.472 125.075C91.778 125.075 92.0261 124.826 92.0261 124.52C92.0261 124.214 91.778 123.966 91.472 123.966C91.1659 123.966 90.9178 124.214 90.9178 124.52C90.9178 124.826 91.1659 125.075 91.472 125.075Z" fill="white"/>
<path d="M114.037 119.379C114.343 119.379 114.592 119.131 114.592 118.825C114.592 118.519 114.343 118.271 114.037 118.271C113.731 118.271 113.483 118.519 113.483 118.825C113.483 119.131 113.731 119.379 114.037 119.379Z" fill="white"/>
<path d="M119.502 85.8697C119.893 85.8697 120.21 85.5527 120.21 85.1617C120.21 84.7706 119.893 84.4536 119.502 84.4536C119.111 84.4536 118.794 84.7706 118.794 85.1617C118.794 85.5527 119.111 85.8697 119.502 85.8697Z" fill="white"/>
<path d="M76.6029 75.8029C77.0109 75.8029 77.3417 75.4721 77.3417 75.064C77.3417 74.656 77.0109 74.3252 76.6029 74.3252C76.1948 74.3252 75.864 74.656 75.864 75.064C75.864 75.4721 76.1948 75.8029 76.6029 75.8029Z" fill="white"/>
<path d="M100.446 61.3802C100.752 61.3802 101 61.1321 101 60.8261C101 60.5201 100.752 60.272 100.446 60.272C100.14 60.272 99.8917 60.5201 99.8917 60.8261C99.8917 61.1321 100.14 61.3802 100.446 61.3802Z" fill="white"/>
<path d="M105.941 47.8963C106.247 47.8963 106.495 47.6483 106.495 47.3422C106.495 47.0362 106.247 46.7881 105.941 46.7881C105.635 46.7881 105.387 47.0362 105.387 47.3422C105.387 47.6483 105.635 47.8963 105.941 47.8963Z" fill="white"/>
<path d="M92.1646 111.083C92.5812 111.083 92.9189 110.745 92.9189 110.328C92.9189 109.912 92.5812 109.574 92.1646 109.574C91.7481 109.574 91.4104 109.912 91.4104 110.328C91.4104 110.745 91.7481 111.083 92.1646 111.083Z" fill="white"/>
<path d="M103.647 124.382C103.953 124.382 104.202 124.134 104.202 123.828C104.202 123.522 103.953 123.273 103.647 123.273C103.341 123.273 103.093 123.522 103.093 123.828C103.093 124.134 103.341 124.382 103.647 124.382Z" fill="white"/>
<path d="M79.0195 86.5932C79.3595 86.5932 79.6352 86.3176 79.6352 85.9775C79.6352 85.6375 79.3595 85.3618 79.0195 85.3618C78.6795 85.3618 78.4038 85.6375 78.4038 85.9775C78.4038 86.3176 78.6795 86.5932 79.0195 86.5932Z" fill="white"/>
<path d="M108.45 56.6855C108.807 56.6855 109.096 56.3961 109.096 56.0391C109.096 55.682 108.807 55.3926 108.45 55.3926C108.093 55.3926 107.803 55.682 107.803 56.0391C107.803 56.3961 108.093 56.6855 108.45 56.6855Z" fill="white"/>
<path d="M98.5987 122.458C99.0323 122.458 99.3838 122.106 99.3838 121.673C99.3838 121.239 99.0323 120.888 98.5987 120.888C98.1652 120.888 97.8137 121.239 97.8137 121.673C97.8137 122.106 98.1652 122.458 98.5987 122.458Z" fill="white"/>
<path d="M114.899 95.2592C115.222 95.2592 115.484 94.9973 115.484 94.6743C115.484 94.3512 115.222 94.0894 114.899 94.0894C114.576 94.0894 114.314 94.3512 114.314 94.6743C114.314 94.9973 114.576 95.2592 114.899 95.2592Z" fill="white"/>
<path d="M117.362 115.67C117.762 115.67 118.086 115.346 118.086 114.946C118.086 114.547 117.762 114.223 117.362 114.223C116.963 114.223 116.639 114.547 116.639 114.946C116.639 115.346 116.963 115.67 117.362 115.67Z" fill="white"/>
<path d="M118.409 98.9074C118.834 98.9074 119.178 98.5628 119.178 98.1378C119.178 97.7127 118.834 97.3682 118.409 97.3682C117.984 97.3682 117.639 97.7127 117.639 98.1378C117.639 98.5628 117.984 98.9074 118.409 98.9074Z" fill="white"/>
<path d="M93.7655 125.798C94.097 125.798 94.3658 125.529 94.3658 125.197C94.3658 124.866 94.097 124.597 93.7655 124.597C93.4339 124.597 93.1652 124.866 93.1652 125.197C93.1652 125.529 93.4339 125.798 93.7655 125.798Z" fill="white"/>
<path d="M99.0297 72.1859C99.3358 72.1859 99.5838 71.9378 99.5838 71.6318C99.5838 71.3257 99.3358 71.0776 99.0297 71.0776C98.7237 71.0776 98.4756 71.3257 98.4756 71.6318C98.4756 71.9378 98.7237 72.1859 99.0297 72.1859Z" fill="white"/>
<path d="M82.9753 87.1317C83.2898 87.1317 83.5448 86.8767 83.5448 86.5622C83.5448 86.2477 83.2898 85.9927 82.9753 85.9927C82.6607 85.9927 82.4058 86.2477 82.4058 86.5622C82.4058 86.8767 82.6607 87.1317 82.9753 87.1317Z" fill="white"/>
<path d="M116.9 113.145C117.206 113.145 117.454 112.897 117.454 112.591C117.454 112.285 117.206 112.037 116.9 112.037C116.594 112.037 116.346 112.285 116.346 112.591C116.346 112.897 116.594 113.145 116.9 113.145Z" fill="white"/>
<path d="M114.207 46.7726C114.785 46.7726 115.253 46.304 115.253 45.7259C115.253 45.1478 114.785 44.6792 114.207 44.6792C113.629 44.6792 113.16 45.1478 113.16 45.7259C113.16 46.304 113.629 46.7726 114.207 46.7726Z" fill="white"/>
<path d="M103.555 86.1776C103.861 86.1776 104.109 85.9295 104.109 85.6235C104.109 85.3174 103.861 85.0693 103.555 85.0693C103.249 85.0693 103.001 85.3174 103.001 85.6235C103.001 85.9295 103.249 86.1776 103.555 86.1776Z" fill="white"/>
<path d="M88.3166 46.85C88.6226 46.85 88.8707 46.6019 88.8707 46.2958C88.8707 45.9898 88.6226 45.7417 88.3166 45.7417C88.0105 45.7417 87.7625 45.9898 87.7625 46.2958C87.7625 46.6019 88.0105 46.85 88.3166 46.85Z" fill="white"/>
<path d="M97.8599 120.888C98.336 120.888 98.7219 120.502 98.7219 120.026C98.7219 119.549 98.336 119.164 97.8599 119.164C97.3838 119.164 96.9979 119.549 96.9979 120.026C96.9979 120.502 97.3838 120.888 97.8599 120.888Z" fill="white"/>
<path d="M99.1528 45.9262C99.5014 45.9262 99.7839 45.6437 99.7839 45.2952C99.7839 44.9466 99.5014 44.6641 99.1528 44.6641C98.8043 44.6641 98.5217 44.9466 98.5217 45.2952C98.5217 45.6437 98.8043 45.9262 99.1528 45.9262Z" fill="white"/>
<path d="M122.827 105.187C123.175 105.187 123.458 104.905 123.458 104.556C123.458 104.208 123.175 103.925 122.827 103.925C122.478 103.925 122.195 104.208 122.195 104.556C122.195 104.905 122.478 105.187 122.827 105.187Z" fill="white"/>
<path d="M111.59 112.683C112.006 112.683 112.344 112.346 112.344 111.929C112.344 111.512 112.006 111.175 111.59 111.175C111.173 111.175 110.836 111.512 110.836 111.929C110.836 112.346 111.173 112.683 111.59 112.683Z" fill="white"/>
<path d="M119.286 48.6201C119.643 48.6201 119.933 48.3307 119.933 47.9736C119.933 47.6166 119.643 47.3271 119.286 47.3271C118.929 47.3271 118.64 47.6166 118.64 47.9736C118.64 48.3307 118.929 48.6201 119.286 48.6201Z" fill="white"/>
<path d="M116.854 81.1903C117.177 81.1903 117.439 80.9285 117.439 80.6054C117.439 80.2824 117.177 80.0205 116.854 80.0205C116.531 80.0205 116.269 80.2824 116.269 80.6054C116.269 80.9285 116.531 81.1903 116.854 81.1903Z" fill="white"/>
<path d="M95.6896 83.7457C96.0722 83.7457 96.3823 83.4356 96.3823 83.053C96.3823 82.6705 96.0722 82.3604 95.6896 82.3604C95.3071 82.3604 94.9969 82.6705 94.9969 83.053C94.9969 83.4356 95.3071 83.7457 95.6896 83.7457Z" fill="white"/>
<path d="M119.84 89.0868C120.146 89.0868 120.394 88.8387 120.394 88.5327C120.394 88.2266 120.146 87.9785 119.84 87.9785C119.534 87.9785 119.286 88.2266 119.286 88.5327C119.286 88.8387 119.534 89.0868 119.84 89.0868Z" fill="white"/>
<path d="M100.092 122.411C100.398 122.411 100.646 122.163 100.646 121.857C100.646 121.551 100.398 121.303 100.092 121.303C99.7858 121.303 99.5377 121.551 99.5377 121.857C99.5377 122.163 99.7858 122.411 100.092 122.411Z" fill="white"/>
<path d="M103.447 89.9181C103.855 89.9181 104.186 89.5873 104.186 89.1793C104.186 88.7712 103.855 88.4404 103.447 88.4404C103.039 88.4404 102.708 88.7712 102.708 89.1793C102.708 89.5873 103.039 89.9181 103.447 89.9181Z" fill="white"/>
<path d="M77.8496 64.474C78.1726 64.474 78.4345 64.2122 78.4345 63.8891C78.4345 63.5661 78.1726 63.3042 77.8496 63.3042C77.5265 63.3042 77.2646 63.5661 77.2646 63.8891C77.2646 64.2122 77.5265 64.474 77.8496 64.474Z" fill="white"/>
<path d="M116.485 116.685C116.799 116.685 117.054 116.43 117.054 116.116C117.054 115.801 116.799 115.546 116.485 115.546C116.17 115.546 115.915 115.801 115.915 116.116C115.915 116.43 116.17 116.685 116.485 116.685Z" fill="white"/>
<path d="M107.188 59.1178C107.579 59.1178 107.896 58.8008 107.896 58.4097C107.896 58.0187 107.579 57.7017 107.188 57.7017C106.797 57.7017 106.48 58.0187 106.48 58.4097C106.48 58.8008 106.797 59.1178 107.188 59.1178Z" fill="white"/>
<path d="M84.253 113.53C84.559 113.53 84.8071 113.282 84.8071 112.976C84.8071 112.67 84.559 112.422 84.253 112.422C83.9469 112.422 83.6989 112.67 83.6989 112.976C83.6989 113.282 83.9469 113.53 84.253 113.53Z" fill="white"/>
<path d="M102.031 82.622C102.346 82.622 102.601 82.367 102.601 82.0524C102.601 81.7379 102.346 81.4829 102.031 81.4829C101.717 81.4829 101.462 81.7379 101.462 82.0524C101.462 82.367 101.717 82.622 102.031 82.622Z" fill="white"/>
<path d="M105.972 46.5113C106.337 46.5113 106.634 46.2149 106.634 45.8494C106.634 45.4838 106.337 45.1875 105.972 45.1875C105.606 45.1875 105.31 45.4838 105.31 45.8494C105.31 46.2149 105.606 46.5113 105.972 46.5113Z" fill="white"/>
<path d="M100.384 81.3749C100.69 81.3749 100.938 81.1268 100.938 80.8207C100.938 80.5147 100.69 80.2666 100.384 80.2666C100.078 80.2666 99.8301 80.5147 99.8301 80.8207C99.8301 81.1268 100.078 81.3749 100.384 81.3749Z" fill="white"/>
<path d="M110.528 121.842C110.996 121.842 111.375 121.463 111.375 120.996C111.375 120.528 110.996 120.149 110.528 120.149C110.06 120.149 109.681 120.528 109.681 120.996C109.681 121.463 110.06 121.842 110.528 121.842Z" fill="white"/>
<path d="M105.741 83.807C106.047 83.807 106.295 83.5589 106.295 83.2529C106.295 82.9468 106.047 82.6987 105.741 82.6987C105.435 82.6987 105.187 82.9468 105.187 83.2529C105.187 83.5589 105.435 83.807 105.741 83.807Z" fill="white"/>
<path d="M97.4596 118.918C97.8422 118.918 98.1523 118.607 98.1523 118.225C98.1523 117.842 97.8422 117.532 97.4596 117.532C97.0771 117.532 96.767 117.842 96.767 118.225C96.767 118.607 97.0771 118.918 97.4596 118.918Z" fill="white"/>
<path d="M100.4 46.5878C100.74 46.5878 101.015 46.3122 101.015 45.9721C101.015 45.6321 100.74 45.3564 100.4 45.3564C100.06 45.3564 99.7839 45.6321 99.7839 45.9721C99.7839 46.3122 100.06 46.5878 100.4 46.5878Z" fill="white"/>
<path d="M94.7198 62.2577C95.0343 62.2577 95.2893 62.0027 95.2893 61.6882C95.2893 61.3736 95.0343 61.1187 94.7198 61.1187C94.4053 61.1187 94.1503 61.3736 94.1503 61.6882C94.1503 62.0027 94.4053 62.2577 94.7198 62.2577Z" fill="white"/>
<path d="M105.879 124.551C106.296 124.551 106.634 124.213 106.634 123.797C106.634 123.38 106.296 123.042 105.879 123.042C105.463 123.042 105.125 123.38 105.125 123.797C105.125 124.213 105.463 124.551 105.879 124.551Z" fill="white"/>
<path d="M94.7044 52.1141C95.0104 52.1141 95.2585 51.866 95.2585 51.56C95.2585 51.254 95.0104 51.0059 94.7044 51.0059C94.3984 51.0059 94.1503 51.254 94.1503 51.56C94.1503 51.866 94.3984 52.1141 94.7044 52.1141Z" fill="white"/>
<path d="M102.539 62.4423C103.058 62.4423 103.478 62.022 103.478 61.5034C103.478 60.9848 103.058 60.5645 102.539 60.5645C102.021 60.5645 101.6 60.9848 101.6 61.5034C101.6 62.022 102.021 62.4423 102.539 62.4423Z" fill="white"/>
<path d="M120.302 87.9016C120.566 87.9016 120.779 87.688 120.779 87.4244C120.779 87.1609 120.566 86.9473 120.302 86.9473C120.039 86.9473 119.825 87.1609 119.825 87.4244C119.825 87.688 120.039 87.9016 120.302 87.9016Z" fill="white"/>
<path d="M111.882 121.119C112.087 121.119 112.252 120.953 112.252 120.749C112.252 120.545 112.087 120.38 111.882 120.38C111.678 120.38 111.513 120.545 111.513 120.749C111.513 120.953 111.678 121.119 111.882 121.119Z" fill="white"/>
<path d="M111.39 120.287C111.602 120.287 111.775 120.115 111.775 119.902C111.775 119.69 111.602 119.518 111.39 119.518C111.177 119.518 111.005 119.69 111.005 119.902C111.005 120.115 111.177 120.287 111.39 120.287Z" fill="white"/>
<path d="M76.2181 50.6364C76.4476 50.6364 76.6337 50.4503 76.6337 50.2208C76.6337 49.9912 76.4476 49.8052 76.2181 49.8052C75.9886 49.8052 75.8025 49.9912 75.8025 50.2208C75.8025 50.4503 75.9886 50.6364 76.2181 50.6364Z" fill="white"/>
<path d="M112.144 62.4425C112.365 62.4425 112.544 62.2633 112.544 62.0423C112.544 61.8213 112.365 61.6421 112.144 61.6421C111.923 61.6421 111.744 61.8213 111.744 62.0423C111.744 62.2633 111.923 62.4425 112.144 62.4425Z" fill="white"/>
<path d="M76.4798 73.4171C76.6838 73.4171 76.8492 73.2517 76.8492 73.0476C76.8492 72.8436 76.6838 72.6782 76.4798 72.6782C76.2757 72.6782 76.1104 72.8436 76.1104 73.0476C76.1104 73.2517 76.2757 73.4171 76.4798 73.4171Z" fill="white"/>
<path d="M112.298 76.3571C112.519 76.3571 112.698 76.1779 112.698 75.9568C112.698 75.7358 112.519 75.5566 112.298 75.5566C112.077 75.5566 111.898 75.7358 111.898 75.9568C111.898 76.1779 112.077 76.3571 112.298 76.3571Z" fill="white"/>
<path d="M113.514 62.0267C113.982 62.0267 114.361 61.6476 114.361 61.1801C114.361 60.7125 113.982 60.3335 113.514 60.3335C113.047 60.3335 112.667 60.7125 112.667 61.1801C112.667 61.6476 113.047 62.0267 113.514 62.0267Z" fill="white"/>
<path d="M91.8261 46.4803C92.1066 46.4803 92.334 46.2528 92.334 45.9723C92.334 45.6918 92.1066 45.4644 91.8261 45.4644C91.5455 45.4644 91.3181 45.6918 91.3181 45.9723C91.3181 46.2528 91.5455 46.4803 91.8261 46.4803Z" fill="white"/>
<path d="M112.59 99.338C112.998 99.338 113.329 99.0072 113.329 98.5992C113.329 98.1911 112.998 97.8604 112.59 97.8604C112.182 97.8604 111.852 98.1911 111.852 98.5992C111.852 99.0072 112.182 99.338 112.59 99.338Z" fill="white"/>
<path d="M76.5412 119.317C76.7452 119.317 76.9106 119.152 76.9106 118.948C76.9106 118.744 76.7452 118.579 76.5412 118.579C76.3371 118.579 76.1718 118.744 76.1718 118.948C76.1718 119.152 76.3371 119.317 76.5412 119.317Z" fill="white"/>
<path d="M79.666 70.4156C79.8701 70.4156 80.0355 70.2502 80.0355 70.0462C80.0355 69.8422 79.8701 69.6768 79.666 69.6768C79.462 69.6768 79.2966 69.8422 79.2966 70.0462C79.2966 70.2502 79.462 70.4156 79.666 70.4156Z" fill="white"/>
<path d="M96.0283 88.317C96.2493 88.317 96.4285 88.1378 96.4285 87.9168C96.4285 87.6958 96.2493 87.5166 96.0283 87.5166C95.8072 87.5166 95.6281 87.6958 95.6281 87.9168C95.6281 88.1378 95.8072 88.317 96.0283 88.317Z" fill="white"/>
<path d="M120.04 112.422C120.499 112.422 120.872 112.05 120.872 111.59C120.872 111.131 120.499 110.759 120.04 110.759C119.581 110.759 119.209 111.131 119.209 111.59C119.209 112.05 119.581 112.422 120.04 112.422Z" fill="white"/>
<path d="M118.532 90.3643C118.736 90.3643 118.901 90.1989 118.901 89.9949C118.901 89.7909 118.736 89.6255 118.532 89.6255C118.328 89.6255 118.163 89.7909 118.163 89.9949C118.163 90.1989 118.328 90.3643 118.532 90.3643Z" fill="white"/>
<path d="M121.18 50.4209C121.528 50.4209 121.811 50.1383 121.811 49.7898C121.811 49.4412 121.528 49.1587 121.18 49.1587C120.831 49.1587 120.548 49.4412 120.548 49.7898C120.548 50.1383 120.831 50.4209 121.18 50.4209Z" fill="white"/>
<path d="M91.1026 71.1544C91.3066 71.1544 91.472 70.989 91.472 70.7849C91.472 70.5809 91.3066 70.4155 91.1026 70.4155C90.8985 70.4155 90.7332 70.5809 90.7332 70.7849C90.7332 70.989 90.8985 71.1544 91.1026 71.1544Z" fill="white"/>
<path d="M84.4683 74.3406C84.9358 74.3406 85.3149 73.9616 85.3149 73.494C85.3149 73.0265 84.9358 72.6475 84.4683 72.6475C84.0007 72.6475 83.6217 73.0265 83.6217 73.494C83.6217 73.9616 84.0007 74.3406 84.4683 74.3406Z" fill="white"/>
<path d="M113.268 112.175C113.472 112.175 113.637 112.01 113.637 111.806C113.637 111.602 113.472 111.437 113.268 111.437C113.064 111.437 112.898 111.602 112.898 111.806C112.898 112.01 113.064 112.175 113.268 112.175Z" fill="white"/>
<path d="M116.1 117.948C116.363 117.948 116.577 117.734 116.577 117.47C116.577 117.207 116.363 116.993 116.1 116.993C115.836 116.993 115.623 117.207 115.623 117.47C115.623 117.734 115.836 117.948 116.1 117.948Z" fill="white"/>
<path d="M95.5355 109.666C95.7991 109.666 96.0127 109.453 96.0127 109.189C96.0127 108.926 95.7991 108.712 95.5355 108.712C95.272 108.712 95.0583 108.926 95.0583 109.189C95.0583 109.453 95.272 109.666 95.5355 109.666Z" fill="white"/>
<path d="M77.357 115.547C77.6036 115.547 77.8034 115.347 77.8034 115.1C77.8034 114.854 77.6036 114.654 77.357 114.654C77.1105 114.654 76.9106 114.854 76.9106 115.1C76.9106 115.347 77.1105 115.547 77.357 115.547Z" fill="white"/>
<path d="M121.872 96.9829C122.229 96.9829 122.519 96.6935 122.519 96.3364C122.519 95.9794 122.229 95.6899 121.872 95.6899C121.515 95.6899 121.226 95.9794 121.226 96.3364C121.226 96.6935 121.515 96.9829 121.872 96.9829Z" fill="white"/>
<path d="M114.438 117.701C114.812 117.701 115.115 117.398 115.115 117.024C115.115 116.65 114.812 116.347 114.438 116.347C114.064 116.347 113.76 116.65 113.76 117.024C113.76 117.398 114.064 117.701 114.438 117.701Z" fill="white"/>
<path d="M119.702 60.0256C119.965 60.0256 120.179 59.812 120.179 59.5485C120.179 59.2849 119.965 59.0713 119.702 59.0713C119.438 59.0713 119.225 59.2849 119.225 59.5485C119.225 59.812 119.438 60.0256 119.702 60.0256Z" fill="white"/>
<path d="M107.649 61.8575C107.853 61.8575 108.019 61.6921 108.019 61.4881C108.019 61.284 107.853 61.1187 107.649 61.1187C107.445 61.1187 107.28 61.284 107.28 61.4881C107.28 61.6921 107.445 61.8575 107.649 61.8575Z" fill="white"/>
<path d="M110.42 75.557C110.735 75.557 110.99 75.302 110.99 74.9875C110.99 74.673 110.735 74.418 110.42 74.418C110.106 74.418 109.851 74.673 109.851 74.9875C109.851 75.302 110.106 75.557 110.42 75.557Z" fill="white"/>
<path d="M115.777 80.6671C115.981 80.6671 116.146 80.5017 116.146 80.2976C116.146 80.0936 115.981 79.9282 115.777 79.9282C115.573 79.9282 115.407 80.0936 115.407 80.2976C115.407 80.5017 115.573 80.6671 115.777 80.6671Z" fill="white"/>
<path d="M82.5751 126.306C82.9662 126.306 83.2832 125.989 83.2832 125.598C83.2832 125.207 82.9662 124.89 82.5751 124.89C82.1841 124.89 81.8671 125.207 81.8671 125.598C81.8671 125.989 82.1841 126.306 82.5751 126.306Z" fill="white"/>
<path d="M97.4135 117.378C97.6431 117.378 97.8291 117.192 97.8291 116.962C97.8291 116.733 97.6431 116.547 97.4135 116.547C97.184 116.547 96.9979 116.733 96.9979 116.962C96.9979 117.192 97.184 117.378 97.4135 117.378Z" fill="white"/>
<path d="M115.669 46.7574C115.882 46.7574 116.054 46.5851 116.054 46.3726C116.054 46.1601 115.882 45.9878 115.669 45.9878C115.456 45.9878 115.284 46.1601 115.284 46.3726C115.284 46.5851 115.456 46.7574 115.669 46.7574Z" fill="white"/>
<path d="M97.1364 82.8834C97.3404 82.8834 97.5058 82.718 97.5058 82.514C97.5058 82.3099 97.3404 82.1445 97.1364 82.1445C96.9324 82.1445 96.767 82.3099 96.767 82.514C96.767 82.718 96.9324 82.8834 97.1364 82.8834Z" fill="white"/>
<path d="M83.6987 72.7248C83.9452 72.7248 84.1451 72.5249 84.1451 72.2784C84.1451 72.0319 83.9452 71.832 83.6987 71.832C83.4522 71.832 83.2523 72.0319 83.2523 72.2784C83.2523 72.5249 83.4522 72.7248 83.6987 72.7248Z" fill="white"/>
<path d="M76.4489 114.053C76.6785 114.053 76.8645 113.867 76.8645 113.638C76.8645 113.408 76.6785 113.222 76.4489 113.222C76.2194 113.222 76.0333 113.408 76.0333 113.638C76.0333 113.867 76.2194 114.053 76.4489 114.053Z" fill="white"/>
<path d="M80.1739 48.1891C80.4034 48.1891 80.5895 48.003 80.5895 47.7735C80.5895 47.544 80.4034 47.3579 80.1739 47.3579C79.9444 47.3579 79.7583 47.544 79.7583 47.7735C79.7583 48.003 79.9444 48.1891 80.1739 48.1891Z" fill="white"/>
<path d="M90.3176 109.543C90.5726 109.543 90.7794 109.336 90.7794 109.081C90.7794 108.826 90.5726 108.62 90.3176 108.62C90.0626 108.62 89.8558 108.826 89.8558 109.081C89.8558 109.336 90.0626 109.543 90.3176 109.543Z" fill="white"/>
<path d="M80.1893 110.529C80.4953 110.529 80.7434 110.281 80.7434 109.975C80.7434 109.668 80.4953 109.42 80.1893 109.42C79.8832 109.42 79.6351 109.668 79.6351 109.975C79.6351 110.281 79.8832 110.529 80.1893 110.529Z" fill="white"/>
<path d="M110.389 79.0662C110.67 79.0662 110.897 78.8388 110.897 78.5582C110.897 78.2777 110.67 78.0503 110.389 78.0503C110.109 78.0503 109.881 78.2777 109.881 78.5582C109.881 78.8388 110.109 79.0662 110.389 79.0662Z" fill="white"/>
<path d="M83.6372 76.9422C83.9348 76.9422 84.176 76.701 84.176 76.4035C84.176 76.1059 83.9348 75.8647 83.6372 75.8647C83.3397 75.8647 83.0985 76.1059 83.0985 76.4035C83.0985 76.701 83.3397 76.9422 83.6372 76.9422Z" fill="white"/>
<path d="M108.727 104.217C108.948 104.217 109.127 104.038 109.127 103.817C109.127 103.596 108.948 103.417 108.727 103.417C108.506 103.417 108.327 103.596 108.327 103.817C108.327 104.038 108.506 104.217 108.727 104.217Z" fill="white"/>
<path d="M118.578 112.006C118.825 112.006 119.025 111.806 119.025 111.56C119.025 111.313 118.825 111.113 118.578 111.113C118.332 111.113 118.132 111.313 118.132 111.56C118.132 111.806 118.332 112.006 118.578 112.006Z" fill="white"/>
<path d="M76.6335 122.181C76.9736 122.181 77.2492 121.905 77.2492 121.565C77.2492 121.225 76.9736 120.949 76.6335 120.949C76.2935 120.949 76.0178 121.225 76.0178 121.565C76.0178 121.905 76.2935 122.181 76.6335 122.181Z" fill="white"/>
<path d="M84.961 88.2249C85.25 88.2249 85.4843 87.9906 85.4843 87.7016C85.4843 87.4125 85.25 87.1782 84.961 87.1782C84.6719 87.1782 84.4376 87.4125 84.4376 87.7016C84.4376 87.9906 84.6719 88.2249 84.961 88.2249Z" fill="white"/>
<path d="M97.2288 81.9909C97.4584 81.9909 97.6444 81.8048 97.6444 81.5753C97.6444 81.3457 97.4584 81.1597 97.2288 81.1597C96.9993 81.1597 96.8132 81.3457 96.8132 81.5753C96.8132 81.8048 96.9993 81.9909 97.2288 81.9909Z" fill="white"/>
<path d="M115.361 61.4264C115.599 61.4264 115.792 61.2335 115.792 60.9954C115.792 60.7574 115.599 60.5645 115.361 60.5645C115.123 60.5645 114.93 60.7574 114.93 60.9954C114.93 61.2335 115.123 61.4264 115.361 61.4264Z" fill="white"/>
<path d="M110.743 111.006C111.032 111.006 111.267 110.771 111.267 110.482C111.267 110.193 111.032 109.959 110.743 109.959C110.454 109.959 110.22 110.193 110.22 110.482C110.22 110.771 110.454 111.006 110.743 111.006Z" fill="white"/>
<path d="M116.839 114.176C117.043 114.176 117.208 114.011 117.208 113.807C117.208 113.603 117.043 113.438 116.839 113.438C116.635 113.438 116.469 113.603 116.469 113.807C116.469 114.011 116.635 114.176 116.839 114.176Z" fill="white"/>
<path d="M98.7065 88.6402C98.919 88.6402 99.0913 88.4679 99.0913 88.2554C99.0913 88.0429 98.919 87.8706 98.7065 87.8706C98.4939 87.8706 98.3217 88.0429 98.3217 88.2554C98.3217 88.4679 98.4939 88.6402 98.7065 88.6402Z" fill="white"/>
<path d="M105.679 73.2015C105.968 73.2015 106.203 72.9672 106.203 72.6781C106.203 72.3891 105.968 72.1548 105.679 72.1548C105.39 72.1548 105.156 72.3891 105.156 72.6781C105.156 72.9672 105.39 73.2015 105.679 73.2015Z" fill="white"/>
<path d="M114.468 112.591C114.672 112.591 114.838 112.425 114.838 112.221C114.838 112.017 114.672 111.852 114.468 111.852C114.264 111.852 114.099 112.017 114.099 112.221C114.099 112.425 114.264 112.591 114.468 112.591Z" fill="white"/>
<path d="M106.772 108.574C106.976 108.574 107.142 108.408 107.142 108.204C107.142 108 106.976 107.835 106.772 107.835C106.568 107.835 106.403 108 106.403 108.204C106.403 108.408 106.568 108.574 106.772 108.574Z" fill="white"/>
<path d="M83.6526 125.213C83.9417 125.213 84.176 124.979 84.176 124.69C84.176 124.401 83.9417 124.167 83.6526 124.167C83.3636 124.167 83.1293 124.401 83.1293 124.69C83.1293 124.979 83.3636 125.213 83.6526 125.213Z" fill="white"/>
<path d="M96.1668 84.9615C96.3708 84.9615 96.5362 84.7961 96.5362 84.5921C96.5362 84.388 96.3708 84.2227 96.1668 84.2227C95.9628 84.2227 95.7974 84.388 95.7974 84.5921C95.7974 84.7961 95.9628 84.9615 96.1668 84.9615Z" fill="white"/>
<path d="M104.91 87.7784C105.114 87.7784 105.279 87.613 105.279 87.409C105.279 87.2049 105.114 87.0396 104.91 87.0396C104.706 87.0396 104.54 87.2049 104.54 87.409C104.54 87.613 104.706 87.7784 104.91 87.7784Z" fill="white"/>
<path d="M99.8917 62.427C100.172 62.427 100.4 62.1996 100.4 61.9191C100.4 61.6385 100.172 61.4111 99.8917 61.4111C99.6112 61.4111 99.3838 61.6385 99.3838 61.9191C99.3838 62.1996 99.6112 62.427 99.8917 62.427Z" fill="white"/>
<path d="M115.3 93.3196C115.589 93.3196 115.823 93.0853 115.823 92.7963C115.823 92.5073 115.589 92.2729 115.3 92.2729C115.011 92.2729 114.776 92.5073 114.776 92.7963C114.776 93.0853 115.011 93.3196 115.3 93.3196Z" fill="white"/>
<path d="M79.6352 123.412C79.8392 123.412 80.0046 123.247 80.0046 123.043C80.0046 122.839 79.8392 122.673 79.6352 122.673C79.4311 122.673 79.2657 122.839 79.2657 123.043C79.2657 123.247 79.4311 123.412 79.6352 123.412Z" fill="white"/>
<path d="M89.4556 45.418C89.6596 45.418 89.825 45.2526 89.825 45.0486C89.825 44.8446 89.6596 44.6792 89.4556 44.6792C89.2516 44.6792 89.0862 44.8446 89.0862 45.0486C89.0862 45.2526 89.2516 45.418 89.4556 45.418Z" fill="white"/>
<path d="M84.6684 125.551C84.9064 125.551 85.0994 125.358 85.0994 125.12C85.0994 124.882 84.9064 124.689 84.6684 124.689C84.4304 124.689 84.2374 124.882 84.2374 125.12C84.2374 125.358 84.4304 125.551 84.6684 125.551Z" fill="white"/>
<path d="M92.0414 47.3731C92.254 47.3731 92.4262 47.2009 92.4262 46.9883C92.4262 46.7758 92.254 46.6035 92.0414 46.6035C91.8289 46.6035 91.6566 46.7758 91.6566 46.9883C91.6566 47.2009 91.8289 47.3731 92.0414 47.3731Z" fill="white"/>
<path d="M97.7521 112.56C97.9817 112.56 98.1677 112.374 98.1677 112.145C98.1677 111.915 97.9817 111.729 97.7521 111.729C97.5226 111.729 97.3365 111.915 97.3365 112.145C97.3365 112.374 97.5226 112.56 97.7521 112.56Z" fill="white"/>
<path d="M80.1431 77.8502C80.3471 77.8502 80.5125 77.6848 80.5125 77.4807C80.5125 77.2767 80.3471 77.1113 80.1431 77.1113C79.9391 77.1113 79.7737 77.2767 79.7737 77.4807C79.7737 77.6848 79.9391 77.8502 80.1431 77.8502Z" fill="white"/>
<path d="M77.157 113.392C77.361 113.392 77.5264 113.226 77.5264 113.022C77.5264 112.818 77.361 112.653 77.157 112.653C76.953 112.653 76.7876 112.818 76.7876 113.022C76.7876 113.226 76.953 113.392 77.157 113.392Z" fill="white"/>
<path d="M92.0877 88.3018C92.2917 88.3018 92.4571 88.1364 92.4571 87.9324C92.4571 87.7284 92.2917 87.563 92.0877 87.563C91.8837 87.563 91.7183 87.7284 91.7183 87.9324C91.7183 88.1364 91.8837 88.3018 92.0877 88.3018Z" fill="white"/>
<path d="M95.8282 62.15C96.0322 62.15 96.1976 61.9846 96.1976 61.7806C96.1976 61.5765 96.0322 61.4111 95.8282 61.4111C95.6241 61.4111 95.4587 61.5765 95.4587 61.7806C95.4587 61.9846 95.6241 62.15 95.8282 62.15Z" fill="white"/>
<path d="M99.9378 77.9273C100.142 77.9273 100.307 77.7619 100.307 77.5579C100.307 77.3539 100.142 77.1885 99.9378 77.1885C99.7337 77.1885 99.5684 77.3539 99.5684 77.5579C99.5684 77.7619 99.7337 77.9273 99.9378 77.9273Z" fill="white"/>
<path d="M84.6378 70.1234C85.6664 70.1234 86.5003 69.2896 86.5003 68.2609C86.5003 67.2323 85.6664 66.3984 84.6378 66.3984C83.6091 66.3984 82.7753 67.2323 82.7753 68.2609C82.7753 69.2896 83.6091 70.1234 84.6378 70.1234Z" fill="white"/>
<path d="M81.9441 71.2778C82.4541 71.2778 82.8676 70.8643 82.8676 70.3542C82.8676 69.8442 82.4541 69.4307 81.9441 69.4307C81.434 69.4307 81.0205 69.8442 81.0205 70.3542C81.0205 70.8643 81.434 71.2778 81.9441 71.2778Z" fill="white"/>
<path d="M86.3309 72.0013C86.8069 72.0013 87.1928 71.6154 87.1928 71.1393C87.1928 70.6633 86.8069 70.2773 86.3309 70.2773C85.8548 70.2773 85.4689 70.6633 85.4689 71.1393C85.4689 71.6154 85.8548 72.0013 86.3309 72.0013Z" fill="white"/>
<path d="M82.2366 67.2447C82.7806 67.2447 83.2217 66.8036 83.2217 66.2595C83.2217 65.7155 82.7806 65.2744 82.2366 65.2744C81.6925 65.2744 81.2515 65.7155 81.2515 66.2595C81.2515 66.8036 81.6925 67.2447 82.2366 67.2447Z" fill="white"/>
<path d="M82.0056 69.3381C82.2691 69.3381 82.4828 69.1245 82.4828 68.861C82.4828 68.5974 82.2691 68.3838 82.0056 68.3838C81.7421 68.3838 81.5284 68.5974 81.5284 68.861C81.5284 69.1245 81.7421 69.3381 82.0056 69.3381Z" fill="white"/>
<path d="M81.9286 67.7987C82.0647 67.7987 82.1749 67.6884 82.1749 67.5524C82.1749 67.4164 82.0647 67.3062 81.9286 67.3062C81.7926 67.3062 81.6824 67.4164 81.6824 67.5524C81.6824 67.6884 81.7926 67.7987 81.9286 67.7987Z" fill="white"/>
<path d="M83.9913 65.8593C84.1273 65.8593 84.2376 65.749 84.2376 65.613C84.2376 65.477 84.1273 65.3667 83.9913 65.3667C83.8553 65.3667 83.745 65.477 83.745 65.613C83.745 65.749 83.8553 65.8593 83.9913 65.8593Z" fill="white"/>
<path d="M87.1005 68.3836C87.398 68.3836 87.6392 68.1424 87.6392 67.8449C87.6392 67.5474 87.398 67.3062 87.1005 67.3062C86.803 67.3062 86.5618 67.5474 86.5618 67.8449C86.5618 68.1424 86.803 68.3836 87.1005 68.3836Z" fill="white"/>
<path d="M86.6849 66.3828C86.8464 66.3828 86.9774 66.2518 86.9774 66.0903C86.9774 65.9288 86.8464 65.7979 86.6849 65.7979C86.5234 65.7979 86.3925 65.9288 86.3925 66.0903C86.3925 66.2518 86.5234 66.3828 86.6849 66.3828Z" fill="white"/>
<path d="M88.1319 71.2623C88.3274 71.2623 88.4859 71.1038 88.4859 70.9082C88.4859 70.7127 88.3274 70.5542 88.1319 70.5542C87.9363 70.5542 87.7778 70.7127 87.7778 70.9082C87.7778 71.1038 87.9363 71.2623 88.1319 71.2623Z" fill="white"/>
<path d="M84.2991 70.6771C84.4352 70.6771 84.5454 70.5669 84.5454 70.4309C84.5454 70.2948 84.4352 70.1846 84.2991 70.1846C84.1631 70.1846 84.0529 70.2948 84.0529 70.4309C84.0529 70.5669 84.1631 70.6771 84.2991 70.6771Z" fill="white"/>
<path d="M79.0502 65.8902C79.2542 65.8902 79.4196 65.7248 79.4196 65.5208C79.4196 65.3168 79.2542 65.1514 79.0502 65.1514C78.8462 65.1514 78.6808 65.3168 78.6808 65.5208C78.6808 65.7248 78.8462 65.8902 79.0502 65.8902Z" fill="white"/>
<path d="M76.2642 67.414C76.7743 67.414 77.1878 67.0005 77.1878 66.4904C77.1878 65.9804 76.7743 65.5669 76.2642 65.5669C75.7542 65.5669 75.3407 65.9804 75.3407 66.4904C75.3407 67.0005 75.7542 67.414 76.2642 67.414Z" fill="white"/>
<path d="M80.0508 69.0611C80.5949 69.0611 81.0359 68.62 81.0359 68.0759C81.0359 67.5319 80.5949 67.0908 80.0508 67.0908C79.5067 67.0908 79.0657 67.5319 79.0657 68.0759C79.0657 68.62 79.5067 69.0611 80.0508 69.0611Z" fill="white"/>
<path d="M77.4957 67.4909C77.2494 67.4139 77.1109 67.1369 77.2032 66.8906C77.2802 66.6443 77.5572 66.5058 77.8035 66.5981C78.0498 66.6905 78.1883 66.9521 78.096 67.1984C78.019 67.4293 77.7573 67.5678 77.4957 67.4909Z" fill="white"/>
<path d="M78.9271 67.6141C79.0631 67.6141 79.1733 67.5039 79.1733 67.3679C79.1733 67.2318 79.0631 67.1216 78.9271 67.1216C78.791 67.1216 78.6808 67.2318 78.6808 67.3679C78.6808 67.5039 78.791 67.6141 78.9271 67.6141Z" fill="white"/>
<path d="M133.986 89.4563V94.3973H130.892V81.0674H135.233C136.203 81.0674 137.019 81.1597 137.696 81.3598C138.373 81.5599 138.927 81.837 139.358 82.191C139.789 82.5451 140.097 82.9607 140.297 83.4378C140.497 83.915 140.59 84.4383 140.59 85.0079C140.59 85.4388 140.528 85.8544 140.42 86.2393C140.297 86.6241 140.128 86.9781 139.897 87.3013C139.666 87.6246 139.389 87.917 139.05 88.1787C138.712 88.4404 138.342 88.6405 137.896 88.8098C138.096 88.9176 138.296 89.0407 138.481 89.1946C138.666 89.3485 138.819 89.5332 138.958 89.7487L141.79 94.3973H138.989C138.465 94.3973 138.096 94.1972 137.865 93.8124L135.679 89.9335C135.587 89.7641 135.464 89.641 135.341 89.564C135.202 89.4871 135.018 89.4563 134.787 89.4563H133.986ZM133.986 87.3321H135.233C135.649 87.3321 136.018 87.286 136.31 87.1782C136.603 87.0705 136.849 86.9165 137.034 86.7318C137.219 86.5471 137.357 86.3162 137.45 86.0699C137.542 85.8237 137.573 85.5466 137.573 85.2541C137.573 84.6692 137.388 84.2074 137.003 83.8842C136.618 83.561 136.033 83.3916 135.233 83.3916H133.986V87.3321Z" fill="white"/>
<path d="M151.657 81.0674V83.4532H146.177V86.5625H150.364V88.856H146.177V92.0268H151.657V94.4127H143.068V81.0828H151.657V81.0674Z" fill="white"/>
<path d="M160.846 83.7764C160.754 83.9303 160.661 84.038 160.553 84.0996C160.446 84.1766 160.323 84.2074 160.169 84.2074C160.03 84.2074 159.876 84.1612 159.722 84.0688C159.553 83.9765 159.384 83.8841 159.168 83.7764C158.968 83.6686 158.737 83.5609 158.475 83.4839C158.214 83.3916 157.921 83.3454 157.583 83.3454C156.998 83.3454 156.567 83.4685 156.29 83.7148C156.013 83.9611 155.859 84.2997 155.859 84.7153C155.859 84.977 155.951 85.2079 156.12 85.3772C156.29 85.5619 156.521 85.7004 156.798 85.839C157.075 85.9621 157.398 86.0852 157.752 86.193C158.106 86.3007 158.475 86.4239 158.845 86.547C159.214 86.6855 159.584 86.8395 159.938 87.0088C160.292 87.1935 160.615 87.409 160.892 87.6861C161.169 87.9631 161.4 88.3018 161.569 88.6866C161.739 89.0868 161.831 89.5486 161.831 90.1027C161.831 90.7184 161.723 91.3033 161.508 91.8266C161.292 92.3654 160.984 92.8272 160.584 93.2274C160.184 93.6276 159.676 93.9354 159.076 94.1663C158.475 94.3972 157.798 94.5049 157.044 94.5049C156.628 94.5049 156.213 94.4588 155.782 94.3818C155.351 94.3048 154.935 94.1817 154.535 94.0278C154.135 93.8738 153.75 93.6891 153.396 93.4736C153.042 93.2581 152.734 93.0273 152.472 92.7656L153.381 91.3187C153.442 91.2109 153.534 91.1186 153.658 91.057C153.781 90.9954 153.904 90.9493 154.058 90.9493C154.243 90.9493 154.427 91.0108 154.612 91.1186C154.797 91.2417 155.012 91.3649 155.243 91.5034C155.474 91.6419 155.751 91.7651 156.059 91.8882C156.367 92.0114 156.721 92.0575 157.136 92.0575C157.69 92.0575 158.137 91.9344 158.445 91.6881C158.753 91.4418 158.906 91.0416 158.906 90.5183C158.906 90.2104 158.814 89.9488 158.645 89.764C158.475 89.5639 158.245 89.41 157.968 89.2715C157.69 89.1483 157.367 89.0252 157.013 88.9329C156.659 88.8405 156.29 88.7328 155.92 88.6096C155.551 88.4865 155.181 88.3479 154.827 88.1632C154.473 87.9939 154.15 87.763 153.873 87.4706C153.596 87.1781 153.365 86.8395 153.196 86.4085C153.027 85.9775 152.934 85.4542 152.934 84.8385C152.934 84.3305 153.042 83.8533 153.242 83.3762C153.442 82.899 153.735 82.4834 154.135 82.0986C154.52 81.7292 154.997 81.4213 155.566 81.2058C156.136 80.9903 156.782 80.8672 157.521 80.8672C157.937 80.8672 158.322 80.898 158.722 80.9595C159.107 81.0211 159.476 81.1135 159.83 81.2366C160.184 81.3597 160.507 81.5137 160.8 81.683C161.108 81.8523 161.369 82.0524 161.616 82.2679L160.846 83.7764Z" fill="white"/>
<path d="M168.881 91.9499C169.297 91.9499 169.666 91.8883 169.989 91.7498C170.312 91.6112 170.589 91.4111 170.82 91.1649C171.051 90.9186 171.221 90.5953 171.344 90.2259C171.467 89.8565 171.528 89.4409 171.528 88.9637V81.0674H174.622V88.9637C174.622 89.7795 174.484 90.5338 174.222 91.211C173.96 91.8883 173.576 92.4886 173.083 92.9812C172.591 93.4737 171.99 93.8585 171.282 94.1356C170.574 94.4127 169.774 94.5512 168.896 94.5512C168.004 94.5512 167.203 94.4127 166.495 94.1356C165.787 93.8585 165.187 93.4737 164.694 92.9812C164.202 92.4886 163.817 91.9037 163.555 91.211C163.293 90.5338 163.155 89.7795 163.155 88.9637V81.0674H166.249V88.9637C166.249 89.4409 166.31 89.8565 166.434 90.2259C166.557 90.5953 166.726 90.9032 166.957 91.1649C167.188 91.4265 167.465 91.6266 167.788 91.7652C168.096 91.8883 168.465 91.9499 168.881 91.9499Z" fill="white"/>
<path d="M179.717 91.9191H184.658V94.3973H176.623V81.0674H179.717V91.9191Z" fill="white"/>
<path d="M194.155 81.0674V83.5148H190.4V94.3973H187.306V83.5148H183.55V81.0674H194.155Z" fill="white"/>
<path d="M142.544 116.362H139.435V110.728H134.017V116.362H130.908V103.032H134.017V108.604H139.435V103.032H142.544V116.362Z" fill="white"/>
<path d="M150.287 113.915C150.702 113.915 151.072 113.853 151.395 113.715C151.718 113.576 151.995 113.376 152.226 113.13C152.457 112.883 152.626 112.56 152.75 112.191C152.873 111.821 152.934 111.406 152.934 110.929V103.032H156.028V110.929C156.028 111.744 155.89 112.499 155.628 113.176C155.366 113.853 154.982 114.453 154.489 114.946C153.996 115.439 153.396 115.823 152.688 116.1C151.98 116.378 151.18 116.516 150.302 116.516C149.409 116.516 148.609 116.378 147.901 116.1C147.193 115.823 146.593 115.439 146.1 114.946C145.607 114.453 145.223 113.869 144.961 113.176C144.699 112.499 144.561 111.744 144.561 110.929V103.032H147.655V110.929C147.655 111.406 147.716 111.821 147.839 112.191C147.963 112.56 148.132 112.868 148.363 113.13C148.594 113.391 148.871 113.591 149.194 113.73C149.502 113.853 149.871 113.915 150.287 113.915Z" fill="white"/>
<path d="M158.029 116.362V103.032H162.924C163.848 103.032 164.633 103.125 165.279 103.294C165.926 103.463 166.449 103.709 166.864 104.017C167.28 104.325 167.573 104.71 167.757 105.156C167.942 105.603 168.034 106.095 168.034 106.649C168.034 106.942 167.988 107.234 167.911 107.511C167.819 107.789 167.696 108.05 167.511 108.296C167.326 108.543 167.095 108.758 166.803 108.958C166.51 109.158 166.172 109.328 165.772 109.482C166.649 109.697 167.295 110.036 167.726 110.513C168.142 110.99 168.358 111.606 168.358 112.36C168.358 112.93 168.25 113.453 168.034 113.945C167.819 114.438 167.496 114.854 167.065 115.223C166.634 115.592 166.11 115.87 165.495 116.07C164.879 116.27 164.155 116.378 163.355 116.378H158.029V116.362ZM161.123 108.635H162.739C163.078 108.635 163.386 108.604 163.663 108.558C163.94 108.512 164.171 108.42 164.355 108.296C164.54 108.173 164.694 108.004 164.802 107.789C164.91 107.573 164.956 107.311 164.956 106.988C164.956 106.665 164.91 106.403 164.833 106.203C164.756 105.988 164.633 105.818 164.463 105.695C164.294 105.572 164.094 105.48 163.832 105.418C163.586 105.356 163.278 105.341 162.924 105.341H161.108V108.635H161.123ZM161.123 110.713V114.038H163.309C163.724 114.038 164.048 113.992 164.309 113.884C164.571 113.776 164.771 113.653 164.925 113.484C165.079 113.314 165.171 113.13 165.233 112.93C165.294 112.729 165.31 112.514 165.31 112.298C165.31 112.052 165.279 111.837 165.217 111.637C165.156 111.437 165.048 111.283 164.894 111.144C164.74 111.006 164.54 110.913 164.279 110.836C164.017 110.759 163.694 110.728 163.309 110.728H161.123V110.713Z" fill="white"/>
</g>
<defs>
<filter id="filter0_d" x="0" y="0" width="236.678" height="182.319" filterUnits="userSpaceOnUse" color-interpolation-filters="sRGB">
<feFlood flood-opacity="0" result="BackgroundImageFix"/>
<feColorMatrix in="SourceAlpha" type="matrix" values="0 0 0 0 0 0 0 0 0 0 0 0 0 0 0 0 0 0 127 0"/>
<feOffset dy="4"/>
<feGaussianBlur stdDeviation="2"/>
<feColorMatrix type="matrix" values="0 0 0 0 0 0 0 0 0 0 0 0 0 0 0 0 0 0 0.25 0"/>
<feBlend mode="normal" in2="BackgroundImageFix" result="effect1_dropShadow"/>
<feBlend mode="normal" in="SourceGraphic" in2="effect1_dropShadow" result="shape"/>
</filter>
</defs>
</svg>
